# xmcd
#
# Track frame offsets: 
#        182
#        17287
#        31732
#        40822
#        60067
#        71590
#        91485
#        109920
#        131390
#        149827
#
# Disc length: 2261 seconds
#
# Revision: 7
# Processed by: cddbd v1.5.2PL0 Copyright (c) Steve Scherf et al.
# Submitted via: ExactAudioCopyFreeDBPlugin 1.0
#
DISCID=7c08d30a
DTITLE=Garth Brooks - The Chase
DYEAR=1992
DGENRE=Country
TTITLE0=We Shall Be Free
TTITLE1=Somewhere Other Than the Night
TTITLE2=Mr. Right
TTITLE3=Every Now and Then
TTITLE4=Walkin' After Midnight
TTITLE5=Dixie Chicken
TTITLE6=Learning to Live Again
TTITLE7=That Summer
TTITLE8=Night Rider's Lament
TTITLE9=Face to Face
EXTD=YEAR: 1992
EXTT0=
EXTT1=
EXTT2=
EXTT3=
EXTT4=
EXTT5=
EXTT6=
EXTT7=
EXTT8=
EXTT9=
PLAYORDER=
